<svg xmlns="http://www.w3.org/2000/svg" width="24" height="24" viewBox="0 0 24 24">
    <g fill="none">
        <path fill="#EA4335" d="M12 5.866c1.878 0 3.145.812 3.866 1.49L18.69 4.6C16.955 2.99 14.7 2 12 2 8.09 2 4.71 4.245 3.066 7.51L6.3 10.023C7.11 7.61 9.355 5.867 12 5.867z"/>
        <path fill="#4285F4" d="M21.6 12.222c0-.822-.066-1.422-.21-2.044H12v3.711h5.51c-.11.922-.71 2.311-2.044 3.245l3.156 2.444c1.889-1.745 2.978-4.312 2.978-7.356z"/>
        <path fill="#FBBC05" d="M6.31 13.978c-.217-.637-.33-1.305-.332-1.978 0-.69.122-1.355.322-1.978L3.066 7.51C2.366 8.904 2.001 10.44 2 12c0 1.61.39 3.134 1.066 4.49l3.246-2.512H6.31z"/>
        <path fill="#34A853" d="M18.645 19.556l-3.132-2.45c-.845.589-2.024 1.027-3.513 1.027-2.645 0-4.89-1.744-5.69-4.155L3.079 16.49C4.722 19.755 8.09 22 12 22c2.7 0 4.99-.91 6.645-2.444z"/>
    </g>
</svg>
